<svg xmlns="http://www.w3.org/2000/svg" viewBox="0 0 15 15"><defs><style>.cls-1{fill:#fff;}.cls-2{fill:#999;}</style></defs><g id="Layer_2" data-name="Layer 2"><g id="Layer_1-2" data-name="Layer 1"><path class="cls-1" d="M7.5,0A7.5,7.5,0,1,0,15,7.5,7.5,7.5,0,0,0,7.5,0ZM8.91,7.64,6.43,10.12a.22.22,0,0,1-.31-.31l2.3-2.3L6.07,5.2c0-.09-.09-.31,0-.36a.56.56,0,0,1,.36,0L8.91,7.32A.22.22,0,0,1,8.91,7.64Z"/><path class="cls-2" d="M8.91,7.64,6.43,10.12a.22.22,0,0,1-.31-.31l2.3-2.3L6.07,5.2c0-.09-.09-.31,0-.36a.56.56,0,0,1,.36,0L8.91,7.32A.22.22,0,0,1,8.91,7.64Z"/></g></g></svg>